<?xml version="1.0" encoding="utf-8"?>
<!-- Generator: Adobe Illustrator 18.1.1, SVG Export Plug-In . SVG Version: 6.00 Build 0)  -->
<svg version="1.1" id="Layer_1" xmlns="http://www.w3.org/2000/svg" xmlns:xlink="http://www.w3.org/1999/xlink" x="0px" y="0px"
	 viewBox="0 0 187 120.7" enable-background="new 0 0 187 120.7" xml:space="preserve">
<path fill="#5C2483" d="M46.5,87.2c0-7.9-6.1-16.7-16.4-16.7c-10.2,0-16.4,7.3-16.4,24c0,14,6.4,21.6,16.7,21.6
	c8.1,0,16.1-6.2,16.1-14.8V87.2z M63.1,118.4c-6.7,0-11.4,0.3-16.6,1v-8.1c-3.7,5.1-9.8,8.6-18.3,8.6C9.4,120,1,107,1,94
	c0-13,9.3-27.2,28.1-27.2c6.5,0,13.1,2.9,17.4,8.6V47.8h-9.1v-3.6h4.5c6.9,0,12.3-0.7,17.2-1.9v72.5h8.4v3.6H63.1z"/>
<path fill="#5C2483" d="M110.6,42.7c-3.6,0-7.4-1.9-7.4-5.6c0-4.1,4.6-5.3,4.6-6.2c0-0.5-1.1-1.9-4-1.9c-5.6,0-10.3,4.4-10.3,15.4
	v24.1h11.4v3.8H93.5v42.5h10.8v3.6h-33v-3.6h9.5V72.3H70.8v-3.8h10.1V55.2c0-22.6,12-29.1,23.1-29.1c6.9,0,14.6,3.8,14.6,10.1
	C118.6,40.8,114.1,42.7,110.6,42.7"/>
<path fill="#5C2483" d="M133.8,120.1c-8.5,0-16.4-2.7-20-6.1v4.4h-3.8v-16.7h2.9c1.9,9.1,9.2,15.1,21.9,15.1
	c12.1,0,15.1-5.7,15.1-9.3c0-14.6-39.2-0.3-39.2-24.5c0-8.5,7.4-16.1,22.2-16.1c5.8,0,11.9,1.6,17.1,4.6v-2.9h3.8v14.2h-2.6
	c-0.9-6.9-9-12.6-18.2-12.6c-11.2,0-14.8,5.2-14.8,8.6c0,13.2,38.8,0.2,38.8,23.9C157,113.8,148.3,120.1,133.8,120.1"/>
<path fill="#C7017F" d="M156.1,49.7c0.5,0,1.3-0.1,3.5-1.1c2.3-1,7.4-3.8,13.4-8.8c6-4.9,13.3-14.4,13.3-23.9
	c0-9.5-7.7-15.2-15.6-15.2c-8,0-14.7,5.7-14.7,5.7h-0.2c0,0-6.7-5.7-14.6-5.7c-7.9,0-15.6,5.7-15.6,15.2c0,9.5,7.4,18.9,13.3,23.9
	c5.8,4.9,11.2,7.9,13.4,8.8c2.3,1,3,1.1,3.5,1.1H156.1z"/>
<path fill="#FFFFFF" d="M139.8,12.9c2.6,2.6,4.3,5.5,5,8.7c2.5-0.6,4.8-0.9,6.7-0.9c1.8,0,3.3,0.2,4.4,0.7c1.2-0.5,2.7-0.7,4.4-0.7
	c2,0,4.2,0.3,6.7,0.9c0.7-3.2,2.4-6.1,5-8.7c-3.3-0.8-6.1-1.2-8.6-1.2c-2.4,0-4.3,0.3-5.7,0.8c-0.7,0.2-1.2,0.5-1.7,0.9l-0.2,0.1
	l-0.2-0.1c-0.5-0.4-1.1-0.7-1.7-0.9c-1.5-0.5-3.4-0.8-5.7-0.8C145.9,11.8,143.1,12.2,139.8,12.9 M172.2,30.1
	c0.1-5.8,1.6-12,2.8-16.3l-1-0.4l-0.1,0c-1.6,1.5-3.8,4.7-4.7,8.8l1.4,0.4v1.2l-0.3-0.1c-3.3-0.9-6.1-1.3-8.3-1.3
	c-1.9,0-3.4,0.2-4.5,0.6c-0.5,0.2-1,0.4-1.4,0.7l-0.2,0.1l-0.2-0.1c-0.4-0.3-0.8-0.5-1.4-0.7c-1.2-0.4-2.7-0.6-4.5-0.6
	c-2.2,0-4.9,0.4-8.3,1.3l-0.3,0.1v-1.2l1.4-0.4c-0.9-4.1-3-7.3-4.7-8.8l-0.2,0l-1,0.3c1.3,4.3,2.8,10.5,2.8,16.3H172.2z M137.9,31.6
	l0-0.3c-0.1-7-1.8-15-2.5-18.1l-0.1-0.2l4.3-1.5l1.9-0.5c3.3-0.8,6.2-1.2,8.8-1.2c2.2,0,4.1,0.3,5.6,1c1.5-0.6,3.4-1,5.6-1
	c2.6,0,5.5,0.4,8.8,1.2l1.9,0.5l4.4,1.5l-0.1,0.2c-0.7,3.1-2.5,11.2-2.5,18.1l0,0.3H137.9z"/>
</svg>
