<?xml version="1.0" encoding="utf-8"?>
<!-- Generator: Adobe Illustrator 22.1.0, SVG Export Plug-In . SVG Version: 6.00 Build 0)  -->
<svg version="1.1" id="Layer_1" xmlns="http://www.w3.org/2000/svg" xmlns:xlink="http://www.w3.org/1999/xlink" x="0px" y="0px" width="50px" height="50px"
	 viewBox="0 0 50 50" style="enable-background:new 0 0 50 50;" xml:space="preserve">
	<style type="text/css">
		.st0{fill-rule:evenodd;clip-rule:evenodd;fill:none;stroke:#333333;stroke-width:4;stroke-linecap:round;stroke-miterlimit:10;}
		.st1{fill:#333333;}
	</style>
	<g transform="translate(-56,-58),scale(0.1668134)">	
		<g id="filter_4_">
			<path class="st0" d="M486.3,361.9"/>
			<path class="st1" d="M418.4,515.3c0-18.2-13.9-33.5-29.2-38.1V361.9c0-5.6-4.6-10.2-10.2-10.2c-5.6,0-10.2,4.6-10.2,10.2v115.4
				c-15.3,4.5-29.2,19.8-29.2,38.1c0,18.2,13.9,33.5,29.2,38.1v84.7c0,5.6,4.6,10.2,10.2,10.2c5.6,0,10.2-4.6,10.2-10.2v-84.7
				C404.5,548.9,418.4,533.6,418.4,515.3z M378.9,534.3c-10.5,0-19-8.5-19-19s8.5-19,19-19s19,8.5,19,19S389.4,534.3,378.9,534.3z"/>
			<path class="st1" d="M525.8,423.3c0-18.2-13.9-33.5-29.2-38.1v-23.3c0-5.6-4.6-10.2-10.2-10.2c-5.6,0-10.2,4.6-10.2,10.2v23.3
				c-15.3,4.5-29.2,19.9-29.2,38.1c0,18.2,13.9,33.5,29.2,38.1v176.8c0,5.6,4.6,10.2,10.2,10.2c5.6,0,10.2-4.6,10.2-10.2V461.3
				C511.9,456.8,525.8,441.5,525.8,423.3z M486.3,442.3c-10.5,0-19-8.5-19-19c0-10.5,8.5-19,19-19c10.5,0,19,8.5,19,19
				C505.3,433.8,496.8,442.3,486.3,442.3z"/>
			<path class="st0" d="M593.7,361.9"/>
			<path class="st1" d="M631.7,576.7c0-17.4-12.3-32-27.7-36.5V361.9c0-5.6-4.6-10.2-10.2-10.2c-5.6,0-10.2,4.6-10.2,10.2v178.4
				c-15.3,4.5-27.7,19.1-27.7,36.5c0,17.4,12.3,32,27.7,36.5v24.9c0,5.6,4.6,10.2,10.2,10.2c5.6,0,10.2-4.6,10.2-10.2v-24.9
				C619.3,608.7,631.7,594.1,631.7,576.7z M593.7,594.2c-9.6,0-17.5-7.8-17.5-17.5c0-9.6,7.8-17.5,17.5-17.5c9.6,0,17.5,7.8,17.5,17.5
				C611.2,586.4,603.4,594.2,593.7,594.2z"/>
		</g>
	</g>
</svg>
