<?xml version="1.0" encoding="utf-8"?>
<!-- Generator: Adobe Illustrator 22.1.0, SVG Export Plug-In . SVG Version: 6.00 Build 0)  -->
<svg version="1.1" id="Layer_1" xmlns="http://www.w3.org/2000/svg" xmlns:xlink="http://www.w3.org/1999/xlink" x="0px" y="0px" width="50px" height="50px"
	 viewBox="0 0 50 50" style="enable-background:new 0 0 50 50;" xml:space="preserve">
	
	<style type="text/css">
		.st0{fill-rule:evenodd;clip-rule:evenodd;fill:none;stroke:#333333;stroke-width:4;stroke-linecap:round;stroke-miterlimit:10;}
		.st1{fill:#333333;}
	</style>
	<g transform="translate(-64,-65),scale(0.1808134)">
		<g id="filter_4_">
			<path class="st0" d="M490.4,359.4"/>
			<path class="st0" d="M597.8,359.4"/>
		</g>
		<g id="sort_3_">
			<path class="st1" d="M619.6,567c-4-4-10.5-4-14.5,0l-28.6,28.6V390.1c0-5.6-4.6-10.2-10.2-10.2c-5.6,0-10.2,4.6-10.2,10.2v205.5
				L527.5,567c-4-4-10.5-4-14.5,0c-4,4-4,10.5,0,14.5l46,46c2,2,4.6,3,7.2,3c2.6,0,5.2-1,7.2-3l46-46C623.6,577.4,623.6,571,619.6,567
				z"/>
			<path class="st1" d="M466.1,413.5l-46-46c-0.5-0.5-1-0.9-1.6-1.3c-0.3-0.2-0.5-0.3-0.8-0.4c-0.3-0.2-0.6-0.4-0.9-0.5
				c-0.3-0.1-0.7-0.2-1.1-0.3c-0.3-0.1-0.6-0.2-0.9-0.3c-1.3-0.3-2.7-0.3-4,0c-0.3,0.1-0.6,0.2-0.9,0.3c-0.3,0.1-0.7,0.2-1,0.3
				c-0.3,0.1-0.6,0.3-1,0.5c-0.3,0.1-0.5,0.3-0.8,0.4c-0.6,0.4-1.1,0.8-1.6,1.3l-46,46c-4,4-4,10.5,0,14.5c2,2,4.6,3,7.2,3
				c2.6,0,5.2-1,7.2-3l28.6-28.6v205.5c0,5.6,4.6,10.2,10.2,10.2c5.6,0,10.2-4.6,10.2-10.2V399.4l28.6,28.6c2,2,4.6,3,7.2,3
				c2.6,0,5.2-1,7.2-3C470.1,424,470.1,417.5,466.1,413.5z"/>
		</g>
	</g>

</svg>
